<svg xmlns="http://www.w3.org/2000/svg" version="1.1" xmlns:xlink="http://www.w3.org/1999/xlink" xmlns:svgjs="http://svgjs.dev/svgjs" width="1000" height="623" viewBox="0 0 1000 623"><g transform="matrix(1,0,0,1,-0.6060606060606233,0.2522267206477409)"><svg viewBox="0 0 396 247" data-background-color="#ffffff" preserveAspectRatio="xMidYMid meet" height="623" width="1000" xmlns="http://www.w3.org/2000/svg" xmlns:xlink="http://www.w3.org/1999/xlink"><g id="tight-bounds" transform="matrix(1,0,0,1,0.2400000000000091,-0.09999999999999432)"><svg viewBox="0 0 395.52 247.2" height="247.2" width="395.52"><g><svg></svg></g><g><svg viewBox="0 0 395.52 247.2" height="247.2" width="395.52"><g transform="matrix(1,0,0,1,102.68422440318301,47.215199999999996)"><svg viewBox="0 0 190.15155119363396 152.7696" height="152.7696" width="190.15155119363396"><g><svg viewBox="0 0 190.15155119363396 152.7696" height="152.7696" width="190.15155119363396"><g><svg viewBox="0 0 190.15155119363396 152.7696" height="152.7696" width="190.15155119363396"><g><svg viewBox="0 0 190.15155119363396 152.7696" height="152.7696" width="190.15155119363396"><g id="textblocktransform"><svg viewBox="0 0 190.15155119363396 152.7696" height="152.7696" width="190.15155119363396" id="textblock"><g><svg viewBox="0 0 190.15155119363396 152.7696" height="152.7696" width="190.15155119363396"><g transform="matrix(1,0,0,1,0,0)"><svg width="190.15155119363396" viewBox="2.12 -36.82 45.830000000000005 36.82" height="152.7696" data-palette-color="#0074d9"><path d="M24.37 0L9.89-30.71Q9.89-30.71 8.86-2.64L8.86-2.64 12.26-2.08 12.26 0 2.12 0 2.12-2.08 5.59-2.64 7.35-34.18 3.91-34.74 3.91-36.82 12.26-36.82 25.37-8.23 38.57-36.82 46.22-36.82 46.22-34.74 42.55-34.18Q42.94-26.22 43.38-18.33 43.82-10.45 44.19-2.64L44.19-2.64 47.95-2.08 47.95 0 36.01 0 36.01-2.08 39.67-2.64 38.57-30.35 24.37 0Z" opacity="1" transform="matrix(1,0,0,1,0,0)" fill="#0074d9" class="wordmark-text-0" data-fill-palette-color="primary" id="text-0"></path></svg></g></svg></g></svg></g></svg></g></svg></g></svg></g></svg></g><g><path d="M218.676 0c30.402 0 58.24 10.976 79.768 29.183l-11.147 0c-19.26-14.022-42.974-22.294-68.621-22.295-25.647 0-49.361 8.272-68.621 22.295l-11.147 0c21.528-18.206 49.366-29.183 79.768-29.183zM342.276 123.6c0 36.91-16.179 70.041-41.832 92.689v-9.409c21.566-21.177 34.943-50.666 34.943-83.28 0-32.613-13.377-62.102-34.943-83.28l0-9.409c25.653 22.648 41.832 55.779 41.832 92.689zM218.676 247.2c-30.402 0-58.24-10.976-79.768-29.183l11.147 0c19.26 14.022 42.974 22.294 68.621 22.295 25.647 0 49.361-8.272 68.621-22.295h11.147c-21.528 18.206-49.366 29.183-79.768 29.183z" fill="#0074d9" stroke="transparent" data-fill-palette-color="tertiary"></path></g></svg></g><defs></defs></svg><rect width="395.52" height="247.2" fill="none" stroke="none" visibility="hidden"></rect></g></svg></g></svg>