<!DOCTYPE svg PUBLIC "-//W3C//DTD SVG 1.1//EN" "http://www.w3.org/Graphics/SVG/1.1/DTD/svg11.dtd">
<!-- Uploaded to: SVG Repo, www.svgrepo.com, Transformed by: SVG Repo Mixer Tools -->
<svg fill="#47b3b1" xmlns="http://www.w3.org/2000/svg" width="64px" height="64px" viewBox="0 0 52 52" enable-background="new 0 0 52 52" xml:space="preserve" stroke="#47b3b1" transform="matrix(1, 0, 0, 1, 0, 0)rotate(180)">
<g id="SVGRepo_bgCarrier" stroke-width="0"/>
<g id="SVGRepo_tracerCarrier" stroke-linecap="round" stroke-linejoin="round"/>
<g id="SVGRepo_iconCarrier"> <path d="M13.1,28.5C7.2,28.5,2.5,33.2,2.5,39c0,5.8,4.7,10.6,10.6,10.6c5.8,0,10.6-4.7,10.6-10.6 C23.6,33.2,18.9,28.5,13.1,28.5z M13.1,44.9c-3.2,0-5.9-2.6-5.9-5.9s2.6-5.9,5.9-5.9s5.9,2.6,5.9,5.9S16.3,44.9,13.1,44.9z"/> <path d="M38.9,28.5c-5.8,0-10.6,4.7-10.6,10.6c0,5.8,4.7,10.6,10.6,10.6c5.8,0,10.6-4.7,10.6-10.6 C49.5,33.2,44.8,28.5,38.9,28.5z"/> <path d="M13.1,2.5C7.2,2.5,2.5,7.2,2.5,13.1c0,5.8,4.7,10.6,10.6,10.6c5.8,0,10.6-4.7,10.6-10.6 C23.6,7.2,18.9,2.5,13.1,2.5z M13.1,18.9c-3.2,0-5.9-2.6-5.9-5.9s2.6-5.9,5.9-5.9s5.9,2.6,5.9,5.9S16.3,18.9,13.1,18.9z"/> <path d="M38.9,2.5c-5.8,0-10.6,4.7-10.6,10.6c0,5.8,4.7,10.6,10.6,10.6c5.8,0,10.6-4.7,10.6-10.6 C49.5,7.2,44.8,2.5,38.9,2.5z"/> </g>
</svg>